<svg xmlns="http://www.w3.org/2000/svg" viewBox="0 0 72 72" width="72" height="72"><g stroke="#1D1D1B" stroke-linecap="round" stroke-linejoin="round" stroke-miterlimit="10" stroke-width="2"><path fill="#D0CFCE" d="M51.9 18.6v23.8H15l-3.7-23.8z"/><path fill="none" d="M51.9 18.6l3.6-7.5h5.2M14 51.9h37.9"/><circle cx="50.1" cy="58.5" r="2.4" fill="#D0CFCE"/><circle cx="14" cy="58.5" r="2.4" fill="#D0CFCE"/><path fill="none" d="M51.9 42.4s4.8.4 4.8 4.8c0 5.1-4.6 4.7-4.6 4.7"/><path fill="#9B9B9A" d="M45.7 23.6v.8m0 12.4v.7m-5.4-13.9v.8m0 12.4v.7m-5.4-13.9v.8m0 12.4v.7m-5.4-13.9v.8m0 12.4v.7m-5.3-13.9v.8m0 12.4v.7m-5.4-13.9v.8m0 12.4v.7M45.7 30v.8m-5.4-.8v.8m-5.4-.8v.8m-5.4-.8v.8m-5.3-.8v.8m-5.4-.8v.8"/></g></svg>