<svg xmlns="http://www.w3.org/2000/svg" viewBox="0 0 72 72" width="72" height="72"><path fill="#FFF" d="M55.3 50.4c3.2-4.1 5.1-9.2 5.1-14.7 0-13.2-10.8-24-24-24s-24 10.8-24 24 10.8 24 24 24c2 0 3.9-.2 5.7-.7 5.9-1.5 10.3-4.4 13.2-8.6z"/><path fill="#010103" d="M49.4 61.8c-3.3 0-6-2.7-6-6s2.7-6 6-6 6 2.7 6 6-2.7 6-6 6zm0-10c-2.2 0-4 1.8-4 4s1.8 4 4 4 4-1.8 4-4-1.8-4-4-4z"/><path d="M41.5 57c-1.6.4-3.4.6-5.1.6-12.1 0-22-9.9-22-22s9.9-22 22-22 22 9.9 22 22c0 5.1-1.7 9.7-4.6 13.4.6.4 1.1.8 1.5 1.3 3.2-4.1 5.1-9.2 5.1-14.7 0-13.2-10.8-24-24-24s-24 10.8-24 24 10.8 24 24 24c2 0 3.9-.2 5.7-.7-.3-.5-.5-1.2-.6-1.9z"/><path fill="#010103" d="M58.5 65.8c-1.7 0-3.1-1.4-3.1-3.1 0-1.7 1.4-3.1 3.1-3.1 1.7 0 3.1 1.4 3.1 3.1.1 1.7-1.3 3.1-3.1 3.1zm0-4.3c-.6 0-1.1.5-1.1 1.1 0 .6.5 1.1 1.1 1.1s1.1-.5 1.1-1.1c.1-.6-.4-1.1-1.1-1.1z"/><circle cx="27.2" cy="35.6" r="2" fill="#010103"/><circle cx="36.4" cy="35.6" r="2" fill="#010103"/><circle cx="45.6" cy="35.6" r="2" fill="#010103"/><path fill="#FFF" d="M49.4 51.8c-2.2 0-4 1.8-4 4s1.8 4 4 4 4-1.8 4-4-1.8-4-4-4zm9.1 9.7c-.6 0-1.1.5-1.1 1.1 0 .6.5 1.1 1.1 1.1s1.1-.5 1.1-1.1c.1-.6-.4-1.1-1.1-1.1z"/></svg>