<svg xmlns="http://www.w3.org/2000/svg"><symbol id="bag" viewBox="0 0 61.7 71.8"><path id="Bag" fill="#fff" d="M30.9 5.2a10.2 10.2 0 0 0-10.2 10.1v3.3H8.9a1.7 1.7 0 0 0-1.7 1.6l-3.4 44a1.5 1.5 0 0 0 .4 1.3 1.8 1.8 0 0 0 1.3.6h50.8a1.6 1.6 0 0 0 1.2-.6 1.9 1.9 0 0 0 .5-1.3l-3.4-44a1.7 1.7 0 0 0-1.7-1.6H41v-3.2A10.1 10.1 0 0 0 30.9 5.2zm-6.8 10.2a6.8 6.8 0 0 1 13.5 0v3.3H24.1zm27.2 6.7l3.1 40.7H7.3l3.1-40.7h10.3v5.1a1.7 1.7 0 0 0 1.7 1.7 1.6 1.6 0 0 0 1.7-1.6v-5.2h13.5v5.1a1.8 1.8 0 0 0 1.7 1.7 1.6 1.6 0 0 0 1.7-1.6v-5.2z"/></symbol><symbol id="sample" viewBox="0 0 176.1 176.9"><g id="sample"><path id="Path_25" fill="#f26d45" d="M88 5.3A82.5 82.5 0 1 1 5.6 87.8 82.5 82.5 0 0 1 88 5.3z"/><path id="Path_21" fill="#fff" d="M36.5 59.8h2.9v73.6c.8 5.9 4.5 10.3 10.4 10.3h77.3a9.7 9.7 0 0 0 9.5-9.5V60.5h3a3 3 0 0 0 2.9-2.9V44.3a9.7 9.7 0 0 0-9.6-9.5H43.1a9.7 9.7 0 0 0-9.5 9.5v12.5a3.1 3.1 0 0 0 2.9 3zm93.5 73.6a3.2 3.2 0 0 1-2.9 3H49.8a3.2 3.2 0 0 1-3-3v-16.2h9.6a3 3 0 0 0 0-5.9H46.1V98.8h9.5a3 3 0 1 0 0-5.9h-9.5V80.4h9.5a3 3 0 1 0 0-5.9h-9.5V59.8h83.2v73.6zM40.2 44.3c0-2.2 1.5-3.7 2.9-3.7h89.8a3.3 3.3 0 0 1 3 3v9.6H40.2z"/></g></symbol><symbol id="insta" viewBox="0 0 61.7 60.3"><g id="insta"><path id="Path_5" fill="none" stroke="#f1ee86" stroke-miterlimit="10" stroke-width="3" d="M41.7 6.9H20.1A12.4 12.4 0 0 0 7.5 19.4v21.7A12.5 12.5 0 0 0 20 53.7h21.7a12.7 12.7 0 0 0 12.6-12.5V19.5A12.7 12.7 0 0 0 41.7 6.9z"/><circle id="Ellipse_8" cx="30.9" cy="30.3" r="11.3" fill="none" stroke="#f1ee86" stroke-miterlimit="10" stroke-width="3"/><circle id="Ellipse_9" cx="44.6" cy="16.6" r="2.4" fill="#f1ee86"/></g></symbol><symbol id="shipping" viewBox="0 0 177 177.9"><g id="shipping"><path id="Path_26" fill="#f26d45" d="M88.2 6.2A82.5 82.5 0 1 1 5.7 88.7 82.4 82.4 0 0 1 88.2 6.2z"/><g id="Group_33" fill="#fff"><path id="Path_19" d="M86.2 114h-13a2.2 2.2 0 0 0-2.3 2.2V127a2.2 2.2 0 0 0 2.3 2.2H86a2.2 2.2 0 0 0 2.2-2.2v-10.8a2 2 0 0 0-1.9-2.2zM84 124.8h-8.6v-6.6H84z"/><path id="Rectangle_23" d="M126.9 116h4.3v4.27h-4.3z"/><path id="Rectangle_24" d="M135.4 116h8.5v4.27h-8.5z"/><path id="Rectangle_25" d="M126.9 124.8H144v4.27h-17.1z"/><path id="Path_20" d="M152.5 57.4l-8.8-17.3a2.2 2.2 0 0 0-2-1.2H73.2a2.4 2.4 0 0 0-2.1 1.2l-8.5 17v.3c0 .2-.2.4-.2.6v10.8H24v4.3h38.6v4.2H32.5v4.3h30.1v53.7a2.3 2.3 0 0 0 2.3 2.3h85.8a2.2 2.2 0 0 0 2.2-2.3V58.2c-.2-.4-.4-.6-.4-.8zm-5.4-1.4h-29l-1.6-12.8h24.1zM101 60.3h12.8v25.8H101zm11-17.1l1.6 12.8h-12.3l1.5-12.8zm-37.5 0h24.1L97 56H68.2zm73.9 90.1H66.9V81.8h12.8v-4.2H66.9v-4.3h12.8V69H66.9v-8.5H97v27.6a2.2 2.2 0 0 0 2.2 2.3h17.1a2.4 2.4 0 0 0 2.3-2.3V60.3h30.1l-.3 73z"/><path id="Rectangle_26" d="M24 105.4h34.4v4.27H24z"/><path id="Rectangle_27" d="M32.5 114h25.8v4.27H32.5z"/></g></g></symbol><symbol id="twitter" viewBox="0 0 61 60.3"><g id="twitter" fill="#f1ee86"><path id="Path_6" stroke="#f1ee86" d="M30.7 5.2A25.1 25.1 0 1 1 5.6 30.3 24.9 24.9 0 0 1 30.5 5.2h.2m0-1.3A26.4 26.4 0 1 0 57 30.3 26.3 26.3 0 0 0 30.7 3.9z"/><path id="Path_7" fill-rule="evenodd" d="M15.5 40.5a13.7 13.7 0 0 0 6.9-1.2 9.5 9.5 0 0 0 2.7-1.7 4.7 4.7 0 0 1-2.8-.7 6.3 6.3 0 0 1-3.1-3.5c-.2-.3-.2-.3.2-.3a4.9 4.9 0 0 0 2.4-.2 5.2 5.2 0 0 1-1.6-.6 6.5 6.5 0 0 1-3.5-5.6c0-.2.1-.3.3-.1a5.8 5.8 0 0 0 2.6.6 5.2 5.2 0 0 1-1.1-1 6.9 6.9 0 0 1-1.1-7.4c.2-.4.3-.4.4-.1a19.5 19.5 0 0 0 11.6 6.4h1.4c.4.1.4-.1.4-.3a6.5 6.5 0 0 1 11-5.9.7.7 0 0 0 .7.2 13.5 13.5 0 0 0 3.5-1.4l.3-.2a7 7 0 0 1-2.9 3.7 13.6 13.6 0 0 0 3.6-1c0 .2-.1.3-.2.5a11.9 11.9 0 0 1-2.7 2.8.4.4 0 0 0-.2.5 19.4 19.4 0 0 1-4.6 12.8 17.7 17.7 0 0 1-11 6.1 18.8 18.8 0 0 1-13.1-2.5z"/></g></symbol><symbol id="wrapping" viewBox="0 0 180.3 181.1"><g id="wrapping"><path id="Path_24" fill="#f26d45" d="M90.2 8.5A82.5 82.5 0 1 1 7.7 91 82.4 82.4 0 0 1 90.2 8.5z"/><g id="Group_34" fill="#fff"><path id="Path_22" d="M49.4 62a7.8 7.8 0 1 0-7.9-7.8 7.8 7.8 0 0 0 7.9 7.8zm0-11.7a3.8 3.8 0 0 1 3.8 3.8 3.9 3.9 0 0 1-7.7 0 3.8 3.8 0 0 1 3.9-3.9z"/><path id="Path_23" d="M128.6 37.3a1.6 1.6 0 0 0-1.4-.6H49.4a17.5 17.5 0 0 0-17.5 17.5v69.9a17.5 17.5 0 0 0 34.8 2.1h17.7v25.3a2 2 0 0 0 2 2H133a2 2 0 0 0 2-2v-25.3h11.7a2 2 0 0 0 2-2.1V58a1.7 1.7 0 0 0-.6-1.4zm.6 6l12.9 12.9h-12.9zm-79.8-2.8a13.7 13.7 0 1 1-13.7 13.7 13.9 13.9 0 0 1 13.7-13.7zm0 97.3a13.7 13.7 0 0 1-13.7-13.7V65a17.5 17.5 0 0 0 24.5 2.6 10.7 10.7 0 0 0 2.6-2.6v58.9a13.3 13.3 0 0 1-13 13.9zm39-11.6v-7.9H98v19.5a3.8 3.8 0 0 1-3.8 3.8v3.9a7.9 7.9 0 0 0 7.8-7.9v-19.5h5.9v31.2H88.4zm0-28.4a4.7 4.7 0 0 1 4.8-4.8 4.8 4.8 0 0 1 3.4 1.4l8.3 8.2H93c-2.4.2-4.6-2-4.6-4.8zm44.6 16.7h-12.6l-6.5-7.9H137v7.9zm-21.3-4.4l3.6 4.4h-3.6zm-4 4.4h-3.6l3.6-4.4zm18.5-11.7h-11.9l8.3-8.2a4.8 4.8 0 0 1 6.8 6.8 4 4 0 0 1-3.2 1.4zm-33 3.8h12.5l-6.5 7.9H82.7v-7.9zm37.8 42.9h-19.5v-31.2h5.8v19.5a7.9 7.9 0 0 0 7.9 7.9h2v-3.9h-2a3.8 3.8 0 0 1-3.8-3.8v-19.5h9.6zm4-27.4v-3.8h3.9a2 2 0 0 0 2-2v-11.7a2 2 0 0 0-2.1-2h-5.4a8.8 8.8 0 0 0-2.5-12.2 8.9 8.9 0 0 0-11.2 1.2l-10.2 10.2-10.3-10.2a8.8 8.8 0 0 0-13.6 11h-5.5a2 2 0 0 0-2 2v11.7a2 2 0 0 0 2 2h3.8v3.8H66.4V56.2h-.2a17.1 17.1 0 0 0-6.4-15.5h64.8v17.5a2 2 0 0 0 2 2h17.5v62.1H135z"/></g></g></symbol></svg>