<svg xmlns="http://www.w3.org/2000/svg"><symbol id="cart" viewBox="0 0 72 72"><g stroke="#1D1D1B" stroke-linecap="round" stroke-linejoin="round" stroke-miterlimit="10" stroke-width="2"><path fill="#D0CFCE" d="M51.9 18.6v23.8H15l-3.7-23.8z"/><path fill="none" d="M51.9 18.6l3.6-7.5h5.2M14 51.9h37.9"/><circle cx="50.1" cy="58.5" r="2.4" fill="#D0CFCE"/><circle cx="14" cy="58.5" r="2.4" fill="#D0CFCE"/><path fill="none" d="M51.9 42.4s4.8.4 4.8 4.8c0 5.1-4.6 4.7-4.6 4.7"/><path fill="#9B9B9A" d="M45.7 23.6v.8m0 12.4v.7m-5.4-13.9v.8m0 12.4v.7m-5.4-13.9v.8m0 12.4v.7m-5.4-13.9v.8m0 12.4v.7m-5.3-13.9v.8m0 12.4v.7m-5.4-13.9v.8m0 12.4v.7M45.7 30v.8m-5.4-.8v.8m-5.4-.8v.8m-5.4-.8v.8m-5.3-.8v.8m-5.4-.8v.8"/></g></symbol><symbol id="insta" viewBox="0 0 72 72"><path fill="none" stroke="#000" stroke-miterlimit="10" stroke-width="2" d="M46.8 12.6H25.2c-7 0-12.6 5.6-12.6 12.6v21.6c0 7 5.6 12.6 12.6 12.6h21.6c7 0 12.6-5.6 12.6-12.6V25.2c0-6.9-5.7-12.6-12.6-12.6z"/><circle cx="36" cy="36" r="11.3" fill="none" stroke="#000" stroke-miterlimit="10" stroke-width="2"/><circle cx="49.7" cy="22.3" r="2.4"/></symbol><symbol id="info" viewBox="0 0 72 72"><path fill="#D0CECE" stroke="#1D1D1B" stroke-linejoin="round" stroke-miterlimit="10" stroke-width="2" d="M59 60H13c-.5 0-1-.4-1-1V13c0-.5.4-1 1-1h46c.5 0 1 .4 1 1v46c0 .6-.4 1-1 1z"/><path fill="none" stroke="#1D1D1B" stroke-linecap="round" stroke-miterlimit="10" stroke-width="2" d="M36.5 31.5v15"/><circle cx="36.5" cy="26" r="1.5" fill="#1D1D1B"/></symbol><symbol id="share" viewBox="0 0 72 72"><path fill="#3F3F3F" stroke="#1D1D1B" stroke-linecap="round" stroke-linejoin="round" stroke-miterlimit="10" stroke-width="2" d="M35.1 14l24.3-.9-.9 24.3-5.6-.2.5-14.2-35.9 35.9-3.9-3.9 35.9-35.9-14.2.5z"/></symbol><symbol id="error" viewBox="0 0 72 72"><path fill="#EA5A47" d="M38.5 57.1l22.2-38.5c1.1-1.9-.3-4.3-2.5-4.3H13.7c-2.2 0-3.5 2.4-2.5 4.3l22.2 38.5c1.2 1.9 4 1.9 5.1 0z"/><path fill="none" stroke="#000" stroke-miterlimit="10" stroke-width="2" d="M38.5 57.1l22.2-38.5c1.1-1.9-.3-4.3-2.5-4.3H13.7c-2.2 0-3.5 2.4-2.5 4.3l22.2 38.5c1.2 1.9 4 1.9 5.1 0z"/></symbol><symbol id="comment" viewBox="0 0 72 72"><path fill="#FFF" d="M55.3 50.4c3.2-4.1 5.1-9.2 5.1-14.7 0-13.2-10.8-24-24-24s-24 10.8-24 24 10.8 24 24 24c2 0 3.9-.2 5.7-.7 5.9-1.5 10.3-4.4 13.2-8.6z"/><path fill="#010103" d="M49.4 61.8c-3.3 0-6-2.7-6-6s2.7-6 6-6 6 2.7 6 6-2.7 6-6 6zm0-10c-2.2 0-4 1.8-4 4s1.8 4 4 4 4-1.8 4-4-1.8-4-4-4z"/><path d="M41.5 57c-1.6.4-3.4.6-5.1.6-12.1 0-22-9.9-22-22s9.9-22 22-22 22 9.9 22 22c0 5.1-1.7 9.7-4.6 13.4.6.4 1.1.8 1.5 1.3 3.2-4.1 5.1-9.2 5.1-14.7 0-13.2-10.8-24-24-24s-24 10.8-24 24 10.8 24 24 24c2 0 3.9-.2 5.7-.7-.3-.5-.5-1.2-.6-1.9z"/><path fill="#010103" d="M58.5 65.8c-1.7 0-3.1-1.4-3.1-3.1 0-1.7 1.4-3.1 3.1-3.1 1.7 0 3.1 1.4 3.1 3.1.1 1.7-1.3 3.1-3.1 3.1zm0-4.3c-.6 0-1.1.5-1.1 1.1 0 .6.5 1.1 1.1 1.1s1.1-.5 1.1-1.1c.1-.6-.4-1.1-1.1-1.1z"/><circle cx="27.2" cy="35.6" r="2" fill="#010103"/><circle cx="36.4" cy="35.6" r="2" fill="#010103"/><circle cx="45.6" cy="35.6" r="2" fill="#010103"/><path fill="#FFF" d="M49.4 51.8c-2.2 0-4 1.8-4 4s1.8 4 4 4 4-1.8 4-4-1.8-4-4-4zm9.1 9.7c-.6 0-1.1.5-1.1 1.1 0 .6.5 1.1 1.1 1.1s1.1-.5 1.1-1.1c.1-.6-.4-1.1-1.1-1.1z"/></symbol></svg>