<svg id="Layer_1" data-name="Layer 1" xmlns="http://www.w3.org/2000/svg" width="3.9in" height="1.3in" viewBox="0 0 283.9 90.9"><title>logo</title><circle id="Ellipse_10" data-name="Ellipse 10" cx="58.5" cy="46.2" r="39.7" fill="#f1ee86"/><path id="Path_8" data-name="Path 8" d="M4.8,61.1S46.9,36.6,63.9,16.9,95.8,19,95.8,19s-10.1,6.1-9.5,13.6,5.5,16.3-3.4,29.9S53.1,79.4,40.2,71.3,22.5,57,4.8,61.1Z" fill="#ba865e"/><path id="Path_9" data-name="Path 9" d="M6.9,60.7s15.9-6.7,31.6.7S51.6,74.5,67.8,73.8c0,0-13.5,8.6-32.6-5.8C20.1,56.7,6.9,60.7,6.9,60.7Z" fill="#f4f9fb"/><path id="Path_10" data-name="Path 10" d="M73.1,38.3S63.6,22,47.7,33.5,28.3,48.9,23.2,50.7c0,0,19.4,18.8,38.4,12.2C83.3,55.3,73.1,38.3,73.1,38.3Z" fill="#263b58"/><path id="Path_11" data-name="Path 11" d="M64.3,19.7s3.4-18,31.2-.3c0,0-9.8,8.5-8.8,14.9C86.7,34.3,76.6,11.1,64.3,19.7Z" fill="#f4f9fb"/><path id="Path_12" data-name="Path 12" d="M66,17.6S61.2,19,67.3,29.2s8.2,22.4,0,30.5-28.5,2.1-28.5,2.1l10.9,7.4c4,2.8,18.2,9.9,30.5-2.5S89.1,36,82.9,26.5,70,16.3,66,17.6Z" fill="#f26d45"/><path d="M118.8,30.8H112V26.6h19.1v4.2h-6.6V67.1h-5.7Z" fill="#fff"/><path d="M134.7,26.6h5.4V41.2a10.3,10.3,0,0,1,7.2-3.4c3.4,0,4.3,3.1,4.3,5.9V67.1h-5.3V45.2c0-2-.5-3.2-2.3-3.2a6.2,6.2,0,0,0-3.9,1.9V67.1h-5.4Z" fill="#fff"/><path d="M156.3,55.9V49.3c0-7.6,1.9-11.5,8.5-11.5s8.2,4.7,8.2,12.6v2.3H161.6v5.8c0,3.5,1,5,3.3,5s2.9-1.8,2.9-4.7V57H173v1.1c0,5.8-2.3,9.4-8.2,9.4S156.3,63.5,156.3,55.9Zm11.5-6.1V47.2c0-3.5-.4-5.5-3-5.5s-3.2,1.6-3.2,6.6v1.5Z" fill="#fff"/><path d="M189.8,26.6h3.8l11.5,26.9V26.6h4.7V67.1h-3.6L194.6,39.4V67.1h-4.8Z" fill="#fff"/><path d="M215.2,55.9V49.3c0-7.6,1.9-11.5,8.5-11.5s8.2,4.7,8.2,12.6v2.3H220.5v5.8c0,3.5,1,5,3.3,5s2.9-1.8,2.9-4.7V57h5.2v1.1c0,5.8-2.3,9.4-8.2,9.4S215.2,63.5,215.2,55.9Zm11.5-6.1V47.2c0-3.5-.4-5.5-3-5.5s-3.2,1.6-3.2,6.6v1.5Z" fill="#fff"/><path d="M235.3,59.4l4.5-1.4c.5,3.7,1.7,5.5,4.1,5.5a2.8,2.8,0,0,0,3-3c0-1.7-.7-2.9-2.4-4.3l-4.9-4.3c-2-1.7-3.6-3.6-3.6-7s3-7.1,7.5-7.1,7,3.4,7.3,7.6l-3.6,1.3c-.4-3-1.2-5-3.5-5a2.9,2.9,0,0,0-2.9,3,3.8,3.8,0,0,0,1.5,2.9l5.1,4.7c2,1.9,4.1,4.1,4.1,7.8s-3.3,7.4-8,7.4S235.7,64.2,235.3,59.4Z" fill="#fff"/><path d="M256.9,60.6V41.7h-3V38.2h3V29.7h5.4v8.5h4.6v3.5h-4.6V60.2c0,2.3.5,3.2,2.6,3.2l2-.2v4a24,24,0,0,1-3.7.3C258.6,67.5,256.9,64.8,256.9,60.6Z" fill="#fff"/></svg>