<svg id="Layer_1" data-name="Layer 1" xmlns="http://www.w3.org/2000/svg" width="0.4in" height="0.4in" viewBox="0 0 31.7 31.7"><title>logo-32</title><circle id="Ellipse_10" data-name="Ellipse 10" cx="18.1" cy="15.5" r="13" fill="#f1ee86"/><path id="Path_8" data-name="Path 8" d="M.5,20.4s13.8-8,19.4-14.5,10.4.7,10.4.7-3.3,2-3.1,4.5,1.8,5.3-1.1,9.7-9.8,5.6-14,2.9S6.3,19.1.5,20.4Z" fill="#ba865e"/><path id="Path_9" data-name="Path 9" d="M1.2,20.3a13.8,13.8,0,0,1,10.3.2c5.1,2.4,4.3,4.3,9.6,4,0,0-4.4,2.9-10.6-1.8S1.2,20.3,1.2,20.3Z" fill="#f4f9fb"/><path id="Path_10" data-name="Path 10" d="M22.9,12.9s-3.1-5.3-8.3-1.5-6.4,5-8,5.6c0,0,6.3,6.1,12.5,4S22.9,12.9,22.9,12.9Z" fill="#263b58"/><path id="Path_11" data-name="Path 11" d="M20,6.8S21.1,1,30.2,6.7c0,0-3.2,2.8-2.9,4.9C27.3,11.6,24,4,20,6.8Z" fill="#f4f9fb"/><path id="Path_12" data-name="Path 12" d="M20.5,6.2s-1.5.4.5,3.7,2.6,7.4,0,10-9.4.7-9.4.7l3.6,2.5c1.3.8,6,3.2,10-.9s2.9-10,.9-13.1S21.9,5.7,20.5,6.2Z" fill="#f26d45"/></svg>