<svg id="Layer_1" data-name="Layer 1" xmlns="http://www.w3.org/2000/svg" width="0.9in" height="0.9in" viewBox="0 0 64.1 64.1"><title>logo-64</title><circle id="Ellipse_10" data-name="Ellipse 10" cx="36.5" cy="32.4" r="26" fill="#f1ee86"/><path id="Path_8" data-name="Path 8" d="M1.4,42.2S29,26.2,40.1,13.3,61,14.6,61,14.6s-6.7,4-6.2,8.9,3.5,10.7-2.3,19.6S33,54.2,24.5,48.9,12.9,39.5,1.4,42.2Z" fill="#ba865e"/><path id="Path_9" data-name="Path 9" d="M2.7,41.9s10.5-4.4,20.7.5S32,51,42.6,50.5c0,0-8.8,5.7-21.3-3.8C11.4,39.3,2.7,41.9,2.7,41.9Z" fill="#f4f9fb"/><path id="Path_10" data-name="Path 10" d="M46.1,27.3s-6.2-10.7-16.7-3.2-12.6,10.1-16,11.3c0,0,12.7,12.3,25.2,8C52.8,38.4,46.1,27.3,46.1,27.3Z" fill="#263b58"/><path id="Path_11" data-name="Path 11" d="M40.3,15.1s2.2-11.8,20.5-.2c0,0-6.5,5.5-5.8,9.8C55,24.6,48.4,9.5,40.3,15.1Z" fill="#f4f9fb"/><path id="Path_12" data-name="Path 12" d="M41.4,13.7s-3.1.9.9,7.6,5.3,14.7,0,20-18.7,1.3-18.7,1.3l7.1,4.9c2.7,1.8,12,6.5,20-1.6s5.8-20.2,1.8-26.4S44.1,12.8,41.4,13.7Z" fill="#f26d45"/></svg>