<svg id="Layer_1" data-name="Layer 1" xmlns="http://www.w3.org/2000/svg" width="0.2in" height="0.2in" viewBox="0 0 15.8 15.8"><title>logo-16</title><circle id="Ellipse_10" data-name="Ellipse 10" cx="9" cy="7.9" r="6" fill="#f1ee86"/><path id="Path_8" data-name="Path 8" d="M.9,10.1S7.2,6.4,9.8,3.5s4.8.3,4.8.3-1.6.9-1.4,2,.8,2.5-.6,4.5a4.8,4.8,0,0,1-6.4,1.3C4.3,10.4,3.6,9.5.9,10.1Z" fill="#ba865e"/><path id="Path_9" data-name="Path 9" d="M1.2,10.1a6,6,0,0,1,4.8.1c2.3,1.1,1.9,1.9,4.4,1.8,0,0-2.1,1.3-4.9-.8A5.2,5.2,0,0,0,1.2,10.1Z" fill="#f4f9fb"/><path id="Path_10" data-name="Path 10" d="M11.2,6.7A2.6,2.6,0,0,0,7.3,6,33.3,33.3,0,0,1,3.7,8.6s2.9,2.8,5.7,1.8S11.2,6.7,11.2,6.7Z" fill="#263b58"/><path id="Path_11" data-name="Path 11" d="M9.8,3.9s.5-2.7,4.7-.1c0,0-1.5,1.3-1.3,2.3S11.7,2.6,9.8,3.9Z" fill="#f4f9fb"/><path id="Path_12" data-name="Path 12" d="M10.1,3.6s-.7.2.2,1.7,1.2,3.4,0,4.6-4.3.3-4.3.3l1.6,1.1a3.6,3.6,0,0,0,4.6-.3,4.9,4.9,0,0,0,.4-6.1C11.7,3.5,10.7,3.4,10.1,3.6Z" fill="#f26d45"/></svg>