<svg id="Layer_1" data-name="Layer 1" xmlns="http://www.w3.org/2000/svg" width="2.7in" height="0.9in" viewBox="0 0 192.9 64.1"><title>logo-64</title><circle id="Ellipse_10" data-name="Ellipse 10" cx="41.5" cy="32.4" r="26" fill="#f1ee86"/><path id="Path_8" data-name="Path 8" d="M6.4,42.2S34,26.2,45.1,13.3,66,14.6,66,14.6s-6.7,4-6.2,8.9,3.5,10.7-2.3,19.6S38,54.2,29.5,48.9,17.9,39.5,6.4,42.2Z" fill="#ba865e"/><path id="Path_9" data-name="Path 9" d="M7.7,41.9s10.5-4.4,20.7.5S37,51,47.6,50.5c0,0-8.8,5.7-21.3-3.8C16.4,39.3,7.7,41.9,7.7,41.9Z" fill="#f4f9fb"/><path id="Path_10" data-name="Path 10" d="M51.1,27.3s-6.2-10.7-16.7-3.2-12.6,10.1-16,11.3c0,0,12.7,12.3,25.2,8C57.8,38.4,51.1,27.3,51.1,27.3Z" fill="#263b58"/><path id="Path_11" data-name="Path 11" d="M45.3,15.1s2.2-11.8,20.5-.2c0,0-6.5,5.5-5.8,9.8C60,24.6,53.4,9.5,45.3,15.1Z" fill="#f4f9fb"/><path id="Path_12" data-name="Path 12" d="M46.4,13.7s-3.1.9.9,7.6,5.3,14.7,0,20-18.7,1.3-18.7,1.3l7.1,4.9c2.7,1.8,12,6.5,20-1.6s5.8-20.2,1.8-26.4S49.1,12.8,46.4,13.7Z" fill="#f26d45"/><path d="M82.6,21.4H77.9V18.6H91v2.8H86.4V46.2H82.6Z" fill="#fff"/><path d="M93.4,18.6h3.7v9.9a6.9,6.9,0,0,1,4.9-2.3c2.3,0,2.9,2.1,2.9,4v16h-3.6V31.3c0-1.4-.3-2.3-1.6-2.3a4.6,4.6,0,0,0-2.6,1.3V46.2H93.4Z" fill="#fff"/><path d="M108.1,38.6V34.1c0-5.3,1.3-7.9,5.8-7.9s5.6,3.2,5.6,8.6v1.6h-7.7v3.9c0,2.4.6,3.4,2.2,3.4s1.9-1.2,1.9-3.2V39.3h3.6v.8c0,3.9-1.5,6.3-5.6,6.3S108.1,43.7,108.1,38.6Zm7.8-4.2V32.6c0-2.4-.2-3.7-2-3.7s-2.1,1-2.1,4.4v1.1Z" fill="#fff"/><path d="M130.9,18.6h2.7l7.8,18.3V18.6h3.2V46.2h-2.5l-7.9-18.9V46.2h-3.3Z" fill="#fff"/><path d="M148.2,38.6V34.1c0-5.3,1.3-7.9,5.9-7.9s5.6,3.2,5.6,8.6v1.6h-7.8v3.9c0,2.4.6,3.4,2.2,3.4s2-1.2,2-3.2V39.3h3.5v.8c0,3.9-1.5,6.3-5.5,6.3S148.2,43.7,148.2,38.6Zm7.9-4.2V32.6c0-2.4-.3-3.7-2.1-3.7s-2.1,1-2.1,4.4v1.1Z" fill="#fff"/><path d="M162,40.9l3-.9c.3,2.5,1.2,3.7,2.8,3.7a1.8,1.8,0,0,0,2-2,3.5,3.5,0,0,0-1.6-3l-3.3-2.9a5.8,5.8,0,0,1-2.5-4.8c0-3.1,2.1-4.8,5.1-4.8s4.8,2.3,5,5.2l-2.4.9c-.3-2.1-.9-3.4-2.4-3.4a1.9,1.9,0,0,0-2,2,2.8,2.8,0,0,0,1,2l3.5,3.2c1.4,1.3,2.8,2.8,2.8,5.3s-2.2,5-5.5,5S162.2,44.2,162,40.9Z" fill="#fff"/><path d="M176.7,41.7V28.9h-2.1V26.5h2.1V20.7h3.6v5.8h3.2v2.4h-3.2V41.5c0,1.5.4,2.1,1.8,2.1h1.4v2.7a11.4,11.4,0,0,1-2.6.2C177.8,46.4,176.7,44.6,176.7,41.7Z" fill="#fff"/></svg>