<svg id="Layer_1" data-name="Layer 1" xmlns="http://www.w3.org/2000/svg" width="3.5in" height="3in" viewBox="0 0 254.2 216"><title>logo</title><circle id="Ellipse_10" data-name="Ellipse 10" cx="142.9" cy="108" r="100.8" fill="#f1ee86"/><path id="Path_8" data-name="Path 8" d="M6.8,145.9s106.8-62,149.8-112,81,5.2,81,5.2-25.8,15.5-24.1,34.5,13.8,41.3-8.6,75.7-75.8,43.1-108.5,22.4S51.6,135.6,6.8,145.9Z" fill="#ba865e"/><path id="Path_9" data-name="Path 9" d="M12,144.9s40.4-17.1,80.1,1.9,33.4,33.2,74.4,31.3c0,0-34.3,21.9-82.7-14.6C45.6,134.7,12,144.9,12,144.9Z" fill="#f4f9fb"/><path id="Path_10" data-name="Path 10" d="M179.9,88.2S155.8,46.9,115.5,76c-37.2,26.8-49.1,38.9-62,43.5,0,0,49.1,47.8,97.3,31C205.7,131.3,179.9,88.2,179.9,88.2Z" fill="#263b58"/><path id="Path_11" data-name="Path 11" d="M157.7,40.8s8.4-45.4,79-.7c0,0-24.9,21.6-22.3,37.9C214.3,77.9,188.9,19.1,157.7,40.8Z" fill="#f4f9fb"/><path id="Path_12" data-name="Path 12" d="M161.8,35.7s-12,3.4,3.5,29.2,20.6,56.9,0,77.5-72.4,5.2-72.4,5.2,17.2,12.1,27.6,19,46.1,24.9,77.3-6.4,22.6-78,7.1-102.1S172.1,32.2,161.8,35.7Z" fill="#f26d45"/></svg>