<svg xmlns="http://www.w3.org/2000/svg" id="Layer_1" width="2.4in" height="240" viewBox="0 0 176.1 176.9"><g id="sample"><path id="Path_25" fill="#f26d45" d="M88 5.3A82.5 82.5 0 1 1 5.6 87.8 82.5 82.5 0 0 1 88 5.3z"/><path id="Path_21" fill="#fff" d="M36.5 59.8h2.9v73.6c.8 5.9 4.5 10.3 10.4 10.3h77.3a9.7 9.7 0 0 0 9.5-9.5V60.5h3a3 3 0 0 0 2.9-2.9V44.3a9.7 9.7 0 0 0-9.6-9.5H43.1a9.7 9.7 0 0 0-9.5 9.5v12.5a3.1 3.1 0 0 0 2.9 3zm93.5 73.6a3.2 3.2 0 0 1-2.9 3H49.8a3.2 3.2 0 0 1-3-3v-16.2h9.6a3 3 0 0 0 0-5.9H46.1V98.8h9.5a3 3 0 1 0 0-5.9h-9.5V80.4h9.5a3 3 0 1 0 0-5.9h-9.5V59.8h83.2v73.6zM40.2 44.3c0-2.2 1.5-3.7 2.9-3.7h89.8a3.3 3.3 0 0 1 3 3v9.6H40.2z"/></g></svg>