<svg xmlns="http://www.w3.org/2000/svg" id="Layer_1" width="240" height="240" viewBox="0 0 177 177.9"><g id="shipping"><path id="Path_26" fill="#f26d45" d="M88.2 6.2A82.5 82.5 0 1 1 5.7 88.7 82.4 82.4 0 0 1 88.2 6.2z"/><g id="Group_33" fill="#fff"><path id="Path_19" d="M86.2 114h-13a2.2 2.2 0 0 0-2.3 2.2V127a2.2 2.2 0 0 0 2.3 2.2H86a2.2 2.2 0 0 0 2.2-2.2v-10.8a2 2 0 0 0-1.9-2.2zM84 124.8h-8.6v-6.6H84z"/><path id="Rectangle_23" d="M126.9 116h4.3v4.27h-4.3z"/><path id="Rectangle_24" d="M135.4 116h8.5v4.27h-8.5z"/><path id="Rectangle_25" d="M126.9 124.8H144v4.27h-17.1z"/><path id="Path_20" d="M152.5 57.4l-8.8-17.3a2.2 2.2 0 0 0-2-1.2H73.2a2.4 2.4 0 0 0-2.1 1.2l-8.5 17v.3c0 .2-.2.4-.2.6v10.8H24v4.3h38.6v4.2H32.5v4.3h30.1v53.7a2.3 2.3 0 0 0 2.3 2.3h85.8a2.2 2.2 0 0 0 2.2-2.3V58.2c-.2-.4-.4-.6-.4-.8zm-5.4-1.4h-29l-1.6-12.8h24.1zM101 60.3h12.8v25.8H101zm11-17.1l1.6 12.8h-12.3l1.5-12.8zm-37.5 0h24.1L97 56H68.2zm73.9 90.1H66.9V81.8h12.8v-4.2H66.9v-4.3h12.8V69H66.9v-8.5H97v27.6a2.2 2.2 0 0 0 2.2 2.3h17.1a2.4 2.4 0 0 0 2.3-2.3V60.3h30.1l-.3 73z"/><path id="Rectangle_26" d="M24 105.4h34.4v4.27H24z"/><path id="Rectangle_27" d="M32.5 114h25.8v4.27H32.5z"/></g></g></svg>