<svg xmlns="http://www.w3.org/2000/svg" id="Layer_1" width="240" height="240" viewBox="0 0 180.3 181.1"><g id="wrapping"><path id="Path_24" fill="#f26d45" d="M90.2 8.5A82.5 82.5 0 1 1 7.7 91 82.4 82.4 0 0 1 90.2 8.5z"/><g id="Group_34" fill="#fff"><path id="Path_22" d="M49.4 62a7.8 7.8 0 1 0-7.9-7.8 7.8 7.8 0 0 0 7.9 7.8zm0-11.7a3.8 3.8 0 0 1 3.8 3.8 3.9 3.9 0 0 1-7.7 0 3.8 3.8 0 0 1 3.9-3.9z"/><path id="Path_23" d="M128.6 37.3a1.6 1.6 0 0 0-1.4-.6H49.4a17.5 17.5 0 0 0-17.5 17.5v69.9a17.5 17.5 0 0 0 34.8 2.1h17.7v25.3a2 2 0 0 0 2 2H133a2 2 0 0 0 2-2v-25.3h11.7a2 2 0 0 0 2-2.1V58a1.7 1.7 0 0 0-.6-1.4zm.6 6l12.9 12.9h-12.9zm-79.8-2.8a13.7 13.7 0 1 1-13.7 13.7 13.9 13.9 0 0 1 13.7-13.7zm0 97.3a13.7 13.7 0 0 1-13.7-13.7V65a17.5 17.5 0 0 0 24.5 2.6 10.7 10.7 0 0 0 2.6-2.6v58.9a13.3 13.3 0 0 1-13 13.9zm39-11.6v-7.9H98v19.5a3.8 3.8 0 0 1-3.8 3.8v3.9a7.9 7.9 0 0 0 7.8-7.9v-19.5h5.9v31.2H88.4zm0-28.4a4.7 4.7 0 0 1 4.8-4.8 4.8 4.8 0 0 1 3.4 1.4l8.3 8.2H93c-2.4.2-4.6-2-4.6-4.8zm44.6 16.7h-12.6l-6.5-7.9H137v7.9zm-21.3-4.4l3.6 4.4h-3.6zm-4 4.4h-3.6l3.6-4.4zm18.5-11.7h-11.9l8.3-8.2a4.8 4.8 0 0 1 6.8 6.8 4 4 0 0 1-3.2 1.4zm-33 3.8h12.5l-6.5 7.9H82.7v-7.9zm37.8 42.9h-19.5v-31.2h5.8v19.5a7.9 7.9 0 0 0 7.9 7.9h2v-3.9h-2a3.8 3.8 0 0 1-3.8-3.8v-19.5h9.6zm4-27.4v-3.8h3.9a2 2 0 0 0 2-2v-11.7a2 2 0 0 0-2.1-2h-5.4a8.8 8.8 0 0 0-2.5-12.2 8.9 8.9 0 0 0-11.2 1.2l-10.2 10.2-10.3-10.2a8.8 8.8 0 0 0-13.6 11h-5.5a2 2 0 0 0-2 2v11.7a2 2 0 0 0 2 2h3.8v3.8H66.4V56.2h-.2a17.1 17.1 0 0 0-6.4-15.5h64.8v17.5a2 2 0 0 0 2 2h17.5v62.1H135z"/></g></g></svg>